<svg width="220" height="220" viewBox="0 0 220 220" fill="none" xmlns="http://www.w3.org/2000/svg">
<path d="M55.6822 169.86L41.8222 175.88L1.64219 109.8L41.8222 43.72L55.6822 49.74L19.1422 109.8L55.6822 169.86ZM164.318 169.86L200.858 109.8L164.318 49.74L178.178 43.72L218.358 109.8L178.178 175.88L164.318 169.86Z" fill="black"/>
<path d="M69.8047 163V61.1818H113.754C121.31 61.1818 127.923 62.5573 133.59 65.3082C139.258 68.0592 143.666 72.0199 146.815 77.1903C149.963 82.3608 151.538 88.5587 151.538 95.7841C151.538 103.076 149.914 109.224 146.665 114.229C143.451 119.233 138.926 123.012 133.093 125.564C127.293 128.116 120.515 129.392 112.759 129.392H86.5092V107.915H107.191C110.439 107.915 113.207 107.517 115.494 106.722C117.814 105.893 119.587 104.584 120.813 102.794C122.073 101.004 122.702 98.6676 122.702 95.7841C122.702 92.8674 122.073 90.4976 120.813 88.6747C119.587 86.8187 117.814 85.4598 115.494 84.598C113.207 83.7031 110.439 83.2557 107.191 83.2557H97.4467V163H69.8047ZM129.464 116.267L154.918 163H124.89L100.032 116.267H129.464Z" fill="#BB0000"/>
</svg>
