<svg width="450" height="220" viewBox="0 0 450 220" fill="none" xmlns="http://www.w3.org/2000/svg">
<rect x="-75" y="-47" width="600" height="300" fill="white"/>
<path d="M7.01172 200V170.909H19.5685C21.7276 170.909 23.6168 171.302 25.2362 172.088C26.8555 172.874 28.1149 174.006 29.0146 175.483C29.9142 176.96 30.364 178.731 30.364 180.795C30.364 182.879 29.9 184.635 28.9719 186.065C28.0534 187.495 26.7608 188.575 25.0941 189.304C23.4369 190.033 21.5004 190.398 19.2844 190.398H11.7844V184.261H17.6935C18.6216 184.261 19.4123 184.148 20.0657 183.92C20.7286 183.684 21.2352 183.31 21.5856 182.798C21.9454 182.287 22.1254 181.619 22.1254 180.795C22.1254 179.962 21.9454 179.285 21.5856 178.764C21.2352 178.234 20.7286 177.846 20.0657 177.599C19.4123 177.344 18.6216 177.216 17.6935 177.216H14.9094V200H7.01172ZM24.0572 186.648L31.3299 200H22.7504L15.6481 186.648H24.0572ZM33.8441 200V178.182H41.685V200H33.8441ZM37.7646 175.909C36.704 175.909 35.7949 175.559 35.0373 174.858C34.2797 174.157 33.9009 173.314 33.9009 172.33C33.9009 171.345 34.2797 170.502 35.0373 169.801C35.7949 169.1 36.704 168.75 37.7646 168.75C38.8346 168.75 39.7437 169.1 40.4918 169.801C41.2494 170.502 41.6282 171.345 41.6282 172.33C41.6282 173.314 41.2494 174.157 40.4918 174.858C39.7437 175.559 38.8346 175.909 37.7646 175.909ZM45.68 208.182V178.182H53.4641V181.989H53.6346C53.9187 181.25 54.3353 180.573 54.8846 179.957C55.4338 179.332 56.1156 178.835 56.93 178.466C57.7444 178.087 58.6914 177.898 59.771 177.898C61.2103 177.898 62.5787 178.281 63.8761 179.048C65.1829 179.815 66.2435 181.023 67.0579 182.67C67.8817 184.318 68.2937 186.458 68.2937 189.091C68.2937 191.61 67.9007 193.698 67.1147 195.355C66.3382 197.012 65.2965 198.248 63.9897 199.062C62.6924 199.877 61.2672 200.284 59.7141 200.284C58.6914 200.284 57.7776 200.118 56.9727 199.787C56.1772 199.446 55.4954 198.987 54.9272 198.409C54.3685 197.822 53.9376 197.159 53.6346 196.42H53.521V208.182H45.68ZM53.3505 189.091C53.3505 190.152 53.4878 191.07 53.7624 191.847C54.0465 192.614 54.4442 193.21 54.9556 193.636C55.4764 194.053 56.0967 194.261 56.8164 194.261C57.5361 194.261 58.1469 194.058 58.6488 193.651C59.1602 193.234 59.5484 192.642 59.8136 191.875C60.0882 191.098 60.2255 190.17 60.2255 189.091C60.2255 188.011 60.0882 187.088 59.8136 186.321C59.5484 185.545 59.1602 184.953 58.6488 184.545C58.1469 184.129 57.5361 183.92 56.8164 183.92C56.0967 183.92 55.4764 184.129 54.9556 184.545C54.4442 184.953 54.0465 185.545 53.7624 186.321C53.4878 187.088 53.3505 188.011 53.3505 189.091ZM96.6495 170.909H104.547V189.545C104.547 191.761 104.017 193.679 102.956 195.298C101.905 196.908 100.437 198.153 98.5529 199.034C96.6684 199.905 94.4809 200.341 91.9904 200.341C89.4809 200.341 87.284 199.905 85.3995 199.034C83.515 198.153 82.0472 196.908 80.9961 195.298C79.9544 193.679 79.4336 191.761 79.4336 189.545V170.909H87.3313V188.864C87.3313 189.763 87.5302 190.568 87.9279 191.278C88.3256 191.979 88.8749 192.528 89.5756 192.926C90.2859 193.324 91.0908 193.523 91.9904 193.523C92.8995 193.523 93.7044 193.324 94.4052 192.926C95.1059 192.528 95.6552 191.979 96.0529 191.278C96.4506 190.568 96.6495 189.763 96.6495 188.864V170.909ZM116.255 187.727V200H108.414V178.182H115.858V182.33H116.085C116.558 180.947 117.392 179.863 118.585 179.077C119.788 178.291 121.189 177.898 122.789 177.898C124.333 177.898 125.673 178.253 126.809 178.963C127.955 179.664 128.841 180.63 129.466 181.861C130.1 183.092 130.413 184.498 130.403 186.08V200H122.562V187.727C122.572 186.648 122.297 185.8 121.738 185.185C121.189 184.569 120.422 184.261 119.437 184.261C118.793 184.261 118.23 184.403 117.747 184.688C117.273 184.962 116.909 185.36 116.653 185.881C116.397 186.392 116.265 187.008 116.255 187.727ZM134.274 200V178.182H142.115V200H134.274ZM138.194 175.909C137.134 175.909 136.225 175.559 135.467 174.858C134.709 174.157 134.331 173.314 134.331 172.33C134.331 171.345 134.709 170.502 135.467 169.801C136.225 169.1 137.134 168.75 138.194 168.75C139.264 168.75 140.173 169.1 140.922 169.801C141.679 170.502 142.058 171.345 142.058 172.33C142.058 173.314 141.679 174.157 140.922 174.858C140.173 175.559 139.264 175.909 138.194 175.909ZM168.098 178.182L160.769 200H151.678L144.348 178.182H152.587L156.11 192.614H156.337L159.86 178.182H168.098ZM180.119 200.398C177.789 200.398 175.782 199.953 174.096 199.062C172.42 198.163 171.127 196.875 170.218 195.199C169.319 193.513 168.869 191.496 168.869 189.148C168.869 186.894 169.324 184.924 170.233 183.239C171.142 181.553 172.425 180.241 174.082 179.304C175.739 178.366 177.695 177.898 179.949 177.898C181.596 177.898 183.088 178.153 184.423 178.665C185.758 179.176 186.899 179.92 187.846 180.895C188.793 181.861 189.522 183.035 190.034 184.418C190.545 185.8 190.801 187.358 190.801 189.091V190.909H171.312V186.591H183.585C183.575 185.966 183.414 185.417 183.102 184.943C182.799 184.46 182.387 184.086 181.866 183.821C181.355 183.546 180.772 183.409 180.119 183.409C179.484 183.409 178.902 183.546 178.372 183.821C177.842 184.086 177.415 184.455 177.093 184.929C176.781 185.402 176.615 185.956 176.596 186.591V191.25C176.596 191.951 176.743 192.576 177.037 193.125C177.33 193.674 177.752 194.105 178.301 194.418C178.85 194.73 179.513 194.886 180.289 194.886C180.829 194.886 181.322 194.811 181.767 194.659C182.221 194.508 182.609 194.29 182.931 194.006C183.253 193.712 183.49 193.362 183.642 192.955H190.801C190.555 194.47 189.972 195.786 189.054 196.903C188.135 198.011 186.918 198.873 185.403 199.489C183.897 200.095 182.136 200.398 180.119 200.398ZM194 200V178.182H201.614V182.33H201.841C202.239 180.795 202.869 179.673 203.73 178.963C204.602 178.253 205.62 177.898 206.784 177.898C207.125 177.898 207.462 177.926 207.793 177.983C208.134 178.03 208.461 178.101 208.773 178.196V184.886C208.385 184.754 207.907 184.654 207.338 184.588C206.77 184.522 206.283 184.489 205.875 184.489C205.108 184.489 204.417 184.664 203.801 185.014C203.195 185.355 202.717 185.838 202.367 186.463C202.016 187.079 201.841 187.803 201.841 188.636V200H194ZM231.287 185.284H224.071C224.033 184.839 223.877 184.455 223.603 184.134C223.328 183.812 222.973 183.565 222.537 183.395C222.111 183.215 221.638 183.125 221.117 183.125C220.444 183.125 219.867 183.248 219.384 183.494C218.901 183.741 218.664 184.091 218.674 184.545C218.664 184.867 218.801 185.166 219.086 185.44C219.379 185.715 219.943 185.928 220.776 186.08L225.208 186.875C227.443 187.282 229.105 187.969 230.194 188.935C231.292 189.891 231.846 191.174 231.855 192.784C231.846 194.337 231.382 195.687 230.463 196.832C229.554 197.969 228.309 198.849 226.728 199.474C225.156 200.09 223.361 200.398 221.344 200.398C218.011 200.398 215.402 199.716 213.517 198.352C211.642 196.989 210.596 195.189 210.378 192.955H218.162C218.266 193.646 218.607 194.181 219.185 194.56C219.772 194.929 220.511 195.114 221.401 195.114C222.121 195.114 222.712 194.991 223.176 194.744C223.65 194.498 223.891 194.148 223.901 193.693C223.891 193.277 223.683 192.945 223.276 192.699C222.878 192.453 222.253 192.254 221.401 192.102L217.537 191.42C215.312 191.032 213.645 190.294 212.537 189.205C211.429 188.116 210.88 186.714 210.89 185C210.88 183.485 211.278 182.202 212.083 181.151C212.897 180.09 214.057 179.285 215.563 178.736C217.078 178.177 218.873 177.898 220.946 177.898C224.1 177.898 226.586 178.551 228.404 179.858C230.231 181.165 231.193 182.973 231.287 185.284ZM240.939 200.341C239.547 200.341 238.316 200.114 237.246 199.659C236.185 199.195 235.352 198.494 234.746 197.557C234.14 196.619 233.837 195.426 233.837 193.977C233.837 192.784 234.041 191.766 234.448 190.923C234.855 190.071 235.423 189.375 236.152 188.835C236.882 188.295 237.729 187.884 238.695 187.599C239.67 187.315 240.721 187.131 241.848 187.045C243.07 186.951 244.05 186.837 244.789 186.705C245.537 186.562 246.077 186.368 246.408 186.122C246.739 185.866 246.905 185.53 246.905 185.114V185.057C246.905 184.489 246.687 184.053 246.252 183.75C245.816 183.447 245.257 183.295 244.576 183.295C243.828 183.295 243.217 183.461 242.743 183.793C242.279 184.115 242 184.612 241.905 185.284H234.689C234.784 183.958 235.205 182.737 235.953 181.619C236.711 180.492 237.814 179.593 239.263 178.92C240.712 178.239 242.521 177.898 244.689 177.898C246.252 177.898 247.653 178.082 248.894 178.452C250.134 178.812 251.19 179.318 252.061 179.972C252.933 180.616 253.596 181.373 254.05 182.244C254.514 183.106 254.746 184.044 254.746 185.057V200H247.417V196.932H247.246C246.81 197.746 246.28 198.404 245.655 198.906C245.04 199.408 244.334 199.773 243.539 200C242.753 200.227 241.886 200.341 240.939 200.341ZM243.496 195.398C244.093 195.398 244.651 195.275 245.172 195.028C245.703 194.782 246.133 194.427 246.465 193.963C246.796 193.499 246.962 192.936 246.962 192.273V190.455C246.754 190.54 246.531 190.62 246.294 190.696C246.067 190.772 245.821 190.843 245.556 190.909C245.3 190.975 245.025 191.037 244.732 191.094C244.448 191.151 244.15 191.203 243.837 191.25C243.231 191.345 242.734 191.501 242.346 191.719C241.967 191.927 241.683 192.188 241.493 192.5C241.313 192.803 241.223 193.144 241.223 193.523C241.223 194.129 241.436 194.593 241.863 194.915C242.289 195.237 242.833 195.398 243.496 195.398ZM266.333 170.909V200H258.493V170.909H266.333ZM278.184 200V170.909H290.74C292.9 170.909 294.789 171.302 296.408 172.088C298.027 172.874 299.287 174.006 300.186 175.483C301.086 176.96 301.536 178.731 301.536 180.795C301.536 182.879 301.072 184.635 300.144 186.065C299.225 187.495 297.933 188.575 296.266 189.304C294.609 190.033 292.672 190.398 290.456 190.398H282.956V184.261H288.865C289.793 184.261 290.584 184.148 291.238 183.92C291.9 183.684 292.407 183.31 292.757 182.798C293.117 182.287 293.297 181.619 293.297 180.795C293.297 179.962 293.117 179.285 292.757 178.764C292.407 178.234 291.9 177.846 291.238 177.599C290.584 177.344 289.793 177.216 288.865 177.216H286.081V200H278.184ZM295.229 186.648L302.502 200H293.922L286.82 186.648H295.229ZM319.164 190.455V178.182H327.005V200H319.561V195.852H319.334C318.861 197.244 318.032 198.333 316.848 199.119C315.665 199.896 314.258 200.284 312.63 200.284C311.105 200.284 309.77 199.934 308.624 199.233C307.488 198.532 306.602 197.566 305.968 196.335C305.343 195.104 305.025 193.693 305.016 192.102V178.182H312.857V190.455C312.866 191.534 313.141 192.382 313.681 192.997C314.23 193.613 314.997 193.92 315.982 193.92C316.635 193.92 317.199 193.783 317.672 193.509C318.155 193.224 318.525 192.827 318.78 192.315C319.045 191.795 319.173 191.174 319.164 190.455ZM338.833 187.727V200H330.993V178.182H338.436V182.33H338.663C339.136 180.947 339.97 179.863 341.163 179.077C342.366 178.291 343.767 177.898 345.368 177.898C346.911 177.898 348.251 178.253 349.387 178.963C350.533 179.664 351.419 180.63 352.044 181.861C352.678 183.092 352.991 184.498 352.981 186.08V200H345.14V187.727C345.15 186.648 344.875 185.8 344.316 185.185C343.767 184.569 343 184.261 342.015 184.261C341.371 184.261 340.808 184.403 340.325 184.688C339.851 184.962 339.487 185.36 339.231 185.881C338.975 186.392 338.843 187.008 338.833 187.727ZM369.863 178.182V183.864H355.488V178.182H369.863ZM358.272 172.955H366.113V192.983C366.113 193.286 366.165 193.542 366.27 193.75C366.374 193.949 366.535 194.1 366.752 194.205C366.97 194.299 367.25 194.347 367.591 194.347C367.827 194.347 368.102 194.318 368.414 194.261C368.736 194.205 368.973 194.157 369.125 194.119L370.261 199.631C369.911 199.735 369.409 199.863 368.755 200.014C368.111 200.166 367.344 200.265 366.454 200.312C364.655 200.407 363.145 200.223 361.923 199.759C360.701 199.285 359.783 198.542 359.167 197.528C358.552 196.515 358.253 195.246 358.272 193.722V172.955ZM373.063 200V178.182H380.904V200H373.063ZM376.983 175.909C375.923 175.909 375.014 175.559 374.256 174.858C373.498 174.157 373.12 173.314 373.12 172.33C373.12 171.345 373.498 170.502 374.256 169.801C375.014 169.1 375.923 168.75 376.983 168.75C378.053 168.75 378.962 169.1 379.711 169.801C380.468 170.502 380.847 171.345 380.847 172.33C380.847 173.314 380.468 174.157 379.711 174.858C378.962 175.559 378.053 175.909 376.983 175.909ZM384.899 200V178.182H392.342V182.33H392.569C393.024 180.966 393.8 179.886 394.899 179.091C395.997 178.295 397.304 177.898 398.819 177.898C400.353 177.898 401.674 178.305 402.782 179.119C403.89 179.924 404.558 180.994 404.785 182.33H405.012C405.382 180.994 406.168 179.924 407.37 179.119C408.573 178.305 409.984 177.898 411.603 177.898C413.696 177.898 415.391 178.57 416.689 179.915C417.995 181.259 418.649 183.049 418.649 185.284V200H410.808V187.273C410.808 186.316 410.566 185.568 410.083 185.028C409.6 184.479 408.952 184.205 408.137 184.205C407.333 184.205 406.693 184.479 406.22 185.028C405.756 185.568 405.524 186.316 405.524 187.273V200H398.024V187.273C398.024 186.316 397.782 185.568 397.299 185.028C396.816 184.479 396.168 184.205 395.353 184.205C394.814 184.205 394.35 184.328 393.961 184.574C393.573 184.82 393.27 185.175 393.052 185.639C392.844 186.094 392.74 186.638 392.74 187.273V200H384.899ZM432.971 200.398C430.641 200.398 428.633 199.953 426.948 199.062C425.272 198.163 423.979 196.875 423.07 195.199C422.17 193.513 421.721 191.496 421.721 189.148C421.721 186.894 422.175 184.924 423.084 183.239C423.993 181.553 425.276 180.241 426.934 179.304C428.591 178.366 430.546 177.898 432.8 177.898C434.448 177.898 435.939 178.153 437.275 178.665C438.61 179.176 439.751 179.92 440.698 180.895C441.645 181.861 442.374 183.035 442.885 184.418C443.397 185.8 443.652 187.358 443.652 189.091V190.909H424.164V186.591H436.436C436.427 185.966 436.266 185.417 435.953 184.943C435.65 184.46 435.239 184.086 434.718 183.821C434.206 183.546 433.624 183.409 432.971 183.409C432.336 183.409 431.754 183.546 431.223 183.821C430.693 184.086 430.267 184.455 429.945 184.929C429.632 185.402 429.467 185.956 429.448 186.591V191.25C429.448 191.951 429.595 192.576 429.888 193.125C430.182 193.674 430.603 194.105 431.152 194.418C431.702 194.73 432.364 194.886 433.141 194.886C433.681 194.886 434.173 194.811 434.618 194.659C435.073 194.508 435.461 194.29 435.783 194.006C436.105 193.712 436.342 193.362 436.493 192.955H443.652C443.406 194.47 442.824 195.786 441.905 196.903C440.987 198.011 439.77 198.873 438.255 199.489C436.749 200.095 434.988 200.398 432.971 200.398Z" fill="black"/>
<path d="M170.542 139.3L153.882 146.3L114.542 79.8L153.882 13.3L170.542 20.3L135.402 79.8L170.542 139.3ZM279.458 139.3L314.598 79.8L279.458 20.3L296.118 13.3L335.458 79.8L296.118 146.3L279.458 139.3Z" fill="black"/>
<path d="M184.805 133V31.1818H228.754C236.31 31.1818 242.923 32.5573 248.59 35.3082C254.258 38.0592 258.666 42.0199 261.815 47.1903C264.963 52.3608 266.538 58.5587 266.538 65.7841C266.538 73.0758 264.914 79.224 261.665 84.2287C258.451 89.2334 253.926 93.0118 248.093 95.5639C242.293 98.116 235.515 99.392 227.759 99.392H201.509V77.9148H222.191C225.439 77.9148 228.207 77.517 230.494 76.7216C232.814 75.893 234.587 74.5838 235.813 72.794C237.073 71.0043 237.702 68.6676 237.702 65.7841C237.702 62.8674 237.073 60.4976 235.813 58.6747C234.587 56.8187 232.814 55.4598 230.494 54.598C228.207 53.7031 225.439 53.2557 222.191 53.2557H212.447V133H184.805ZM244.464 86.267L269.918 133H239.89L215.032 86.267H244.464Z" fill="#BB0000"/>
</svg>
